# Blender v2.76 (sub 0) OBJ File: ''
# www.blender.org
mtllib katana.mtl
o blade
v 0.000000 -0.060881 2.155488
v -0.009876 -0.050175 2.155664
v -0.009876 0.025696 2.156919
v 0.000000 0.097995 2.158113
v 0.000000 -0.087544 3.601488
v -0.009876 -0.076839 3.601665
v -0.009876 -0.006783 3.602919
v 0.000000 0.058220 3.603993
v 0.000000 -0.074200 0.717122
v -0.013300 -0.063500 0.717122
v -0.009876 0.012400 0.717122
v 0.000000 0.084700 0.717122
v 0.000000 -0.155666 5.086191
v -0.009876 -0.144650 5.077984
v -0.009876 -0.088119 5.031868
v 0.000000 -0.013857 5.041667
v 0.000000 -0.160627 5.228323
v 0.000000 -0.078633 5.176935
v 0.000000 -0.075200 0.649322
v -0.014061 -0.062758 0.649322
v -0.013749 0.012099 0.649322
v 0.000000 0.086124 0.649322
v 0.000000 -0.201296 0.636222
v -0.093155 -0.155708 0.636222
v -0.131741 -0.000000 0.636222
v 0.000000 -0.201296 0.649322
v -0.093155 -0.155708 0.649322
v -0.131741 -0.000000 0.649322
v 0.000000 0.201296 0.636222
v -0.093155 0.155708 0.636222
v 0.000000 0.201296 0.649322
v -0.093155 0.155708 0.649322
v 0.009876 -0.050175 2.155664
v 0.009876 0.025696 2.156919
v 0.009876 -0.076839 3.601665
v 0.009876 -0.006783 3.602919
v 0.013300 -0.063500 0.717122
v 0.009876 0.012400 0.717122
v 0.009876 -0.144650 5.077984
v 0.009876 -0.088119 5.031868
v 0.014061 -0.062758 0.649322
v 0.013749 0.012099 0.649322
v 0.093155 -0.155708 0.636222
v 0.131741 -0.000000 0.636222
v 0.093155 -0.155708 0.649322
v 0.131741 -0.000000 0.649322
v 0.093155 0.155708 0.636222
v 0.093155 0.155708 0.649322
v -0.037189 -0.050432 0.636222
v -0.026690 0.077693 0.636222
v 0.000000 0.107976 0.636222
v 0.000000 -0.088098 0.636222
v 0.037189 -0.050432 0.636222
v 0.026690 0.077693 0.636222
v 0.000000 -0.117723 -0.813791
v -0.028081 -0.089202 -0.822302
v -0.020922 0.019351 -0.827042
v 0.000000 0.043419 -0.820827
v 0.028087 -0.089202 -0.822302
v 0.020928 0.019351 -0.827042
vt 0.045230 0.977390
vt 0.012880 0.982920
vt 0.055150 0.957830
vt 0.043230 0.983070
vt 0.023930 0.954540
vt 0.049820 0.932120
vt 0.674130 0.944690
vt 0.362980 0.957630
vt 0.363170 0.952060
vt 0.674160 0.948400
vt 0.673860 0.918440
vt 0.362670 0.929680
vt 0.362440 0.907180
vt 0.673600 0.893410
vt 0.985190 0.949310
vt 0.985190 0.953020
vt 0.985190 0.923050
vt 0.985190 0.898020
vt 0.485230 0.767400
vt 0.626090 0.794510
vt 0.626100 0.765810
vt 0.485230 0.796100
vt 0.485230 0.672730
vt 0.626230 0.671150
vt 0.485230 0.633920
vt 0.626340 0.632350
vt 0.960510 0.358740
vt 0.969770 0.434570
vt 0.972510 0.358840
vt 0.958250 0.434170
vt 0.955800 0.653040
vt 0.966750 0.790410
vt 0.967040 0.653040
vt 0.956370 0.789730
vt 0.955550 0.514310
vt 0.967240 0.513160
vt 0.800750 0.550400
vt 0.786070 0.471370
vt 0.926720 0.563320
vt 0.801080 0.630330
vt 0.885520 0.729570
vt 0.885520 0.397080
vt 0.786070 0.348410
vt 0.786070 0.643610
vt 0.786070 0.778240
vt 0.771390 0.550400
vt 0.645410 0.563320
vt 0.771050 0.630330
vt 0.686610 0.729570
vt 0.686610 0.397080
vt 0.085200 0.140690
vt 0.964340 0.162540
vt 0.963870 0.135500
vt 0.085480 0.162590
vt 0.084620 0.062820
vt 0.964350 0.050920
vt 0.084620 0.046130
vt 0.965070 0.031240
vt 0.063040 0.139510
vt 0.045560 0.159290
vt 0.024110 0.139510
vt 0.029070 0.064210
vt 0.058070 0.064210
vt 0.045560 0.047510
vt 0.814290 0.479470
vt 0.825660 0.617840
vt 0.928090 0.563380
vt 0.886290 0.731540
vt 0.785380 0.345980
vt 0.785380 0.446770
vt 0.886290 0.395210
vt 0.785380 0.658520
vt 0.785380 0.780770
vt 0.745090 0.617840
vt 0.756470 0.479470
vt 0.642670 0.563380
vt 0.684470 0.731540
vt 0.684470 0.395210
vn -0.941800 -0.335800 0.014000
vn 0.000000 -0.377600 0.925900
vn -0.997300 0.069300 0.025100
vn 0.000000 -0.999200 -0.038500
vn 0.000000 0.668000 0.744200
vn 0.000000 0.972300 0.233800
vn -0.932600 -0.360900 -0.001200
vn 0.000000 -0.999500 -0.032300
vn -0.932500 -0.361000 -0.011600
vn 0.000000 -1.000000 -0.003200
vn -0.997600 0.068600 0.000600
vn -0.997100 0.076100 0.003000
vn 0.000000 0.999200 0.039400
vn 0.000000 0.999900 0.009200
vn -0.907800 -0.419100 0.011200
vn 0.000000 -1.000000 0.005000
vn -0.995100 0.096300 0.022100
vn 0.000000 1.000000 0.005900
vn -0.527800 -0.236300 0.815800
vn 0.000000 -0.451100 0.892400
vn -0.665500 0.069700 0.743100
vn 0.000000 0.081300 0.996700
vn -0.608400 -0.491300 -0.623200
vn 0.000000 -0.784400 0.620300
vn -0.608400 -0.491300 0.623200
vn 0.000000 -0.784400 -0.620300
vn -0.754100 0.000000 -0.656800
vn -0.754100 0.000000 0.656800
vn -0.608400 0.491300 0.623200
vn 0.000000 0.784400 -0.620300
vn -0.608400 0.491300 -0.623200
vn 0.000000 0.784400 0.620300
vn 0.941800 -0.335800 0.014000
vn 0.997300 0.069300 0.025100
vn 0.932600 -0.360900 -0.001200
vn 0.932500 -0.361000 -0.011600
vn 0.997600 0.068600 0.000600
vn 0.997100 0.076100 0.003000
vn 0.907800 -0.419100 0.011200
vn 0.995100 0.096300 0.022100
vn 0.527800 -0.236300 0.815800
vn 0.665500 0.069700 0.743100
vn 0.608400 -0.491300 -0.623200
vn 0.608400 -0.491300 0.623200
vn 0.754100 0.000000 -0.656800
vn 0.754100 0.000000 0.656800
vn 0.608400 0.491300 0.623200
vn 0.608400 0.491300 -0.623200
vn -0.709500 -0.320500 -0.627600
vn 0.000000 -0.429700 -0.903000
vn -0.548400 -0.195100 -0.813100
vn -0.000000 -0.900800 -0.434200
vn -0.680300 0.301500 -0.668000
vn -0.561300 0.243300 -0.791000
vn -0.000000 0.881200 -0.472700
vn 0.000000 0.381200 -0.924500
vn 0.709500 -0.320600 -0.627600
vn 0.548400 -0.195100 -0.813100
vn 0.680300 0.301500 -0.668000
vn 0.561300 0.243300 -0.791000
usemtl mat1
s 1
f 14/1/1 17/2/2 15/3/3
f 14/1/1 13/4/4 17/2/2
f 15/3/3 18/5/5 16/6/6
f 15/3/3 17/2/2 18/5/5
f 2/7/7 5/8/8 6/9/9
f 2/7/7 1/10/10 5/8/8
f 3/11/11 6/9/9 7/12/12
f 3/11/11 2/7/7 6/9/9
f 3/11/11 8/13/13 4/14/14
f 3/11/11 7/12/12 8/13/13
f 10/15/15 1/10/10 2/7/7
f 9/16/16 1/10/10 10/15/15
f 11/17/17 2/7/7 3/11/11
f 11/17/17 10/15/15 2/7/7
f 12/18/18 3/11/11 4/14/14
f 12/18/18 11/17/17 3/11/11
f 5/8/8 14/1/1 6/9/9
f 5/8/8 13/4/4 14/1/1
f 7/12/12 14/1/1 15/3/3
f 7/12/12 6/9/9 14/1/1
f 8/13/13 15/3/3 16/6/6
f 8/13/13 7/12/12 15/3/3
f 20/19/19 9/20/16 10/21/15
f 20/19/19 19/22/20 9/20/16
f 21/23/21 10/21/15 11/24/17
f 21/23/21 20/19/19 10/21/15
f 22/25/22 11/24/17 12/26/18
f 22/25/22 21/23/21 11/24/17
f 24/27/23 26/28/24 27/29/25
f 24/27/23 23/30/26 26/28/24
f 25/31/27 27/32/25 28/33/28
f 25/31/27 24/34/23 27/32/25
f 32/35/29 29/28/30 30/36/31
f 32/35/29 31/30/32 29/28/30
f 28/33/28 30/35/31 25/31/27
f 28/33/28 32/36/29 30/35/31
f 17/2/2 39/1/33 40/3/34
f 13/4/4 39/1/33 17/2/2
f 18/5/5 40/3/34 16/6/6
f 17/2/2 40/3/34 18/5/5
f 5/8/8 33/7/35 35/9/36
f 1/10/10 33/7/35 5/8/8
f 35/9/36 34/11/37 36/12/38
f 33/7/35 34/11/37 35/9/36
f 8/13/13 34/11/37 4/14/14
f 36/12/38 34/11/37 8/13/13
f 1/10/10 37/15/39 33/7/35
f 37/15/39 1/10/10 9/16/16
f 33/7/35 38/17/40 34/11/37
f 37/15/39 38/17/40 33/7/35
f 34/11/37 12/18/18 4/14/14
f 38/17/40 12/18/18 34/11/37
f 39/1/33 5/8/8 35/9/36
f 13/4/4 5/8/8 39/1/33
f 39/1/33 36/12/38 40/3/34
f 35/9/36 36/12/38 39/1/33
f 40/3/34 8/13/13 16/6/6
f 36/12/38 8/13/13 40/3/34
f 9/20/16 41/19/41 37/21/39
f 19/22/20 41/19/41 9/20/16
f 37/21/39 42/23/42 38/24/40
f 41/19/41 42/23/42 37/21/39
f 38/24/40 22/25/22 12/26/18
f 42/23/42 22/25/22 38/24/40
f 26/28/24 43/27/43 45/29/44
f 23/30/26 43/27/43 26/28/24
f 45/32/44 44/31/45 46/33/46
f 43/34/43 44/31/45 45/32/44
f 29/28/30 48/35/47 47/36/48
f 31/30/32 48/35/47 29/28/30
f 47/35/48 46/33/46 44/31/45
f 48/36/47 46/33/46 47/35/48
f 21/37/21 22/38/22 28/39/28
f 20/40/19 21/37/21 28/39/28
f 27/41/25 20/40/19 28/39/28
f 22/38/22 32/42/29 28/39/28
f 22/38/22 31/43/32 32/42/29
f 27/41/25 19/44/20 20/40/19
f 27/41/25 26/45/24 19/44/20
f 22/38/22 42/46/42 46/47/46
f 42/46/42 41/48/41 46/47/46
f 41/48/41 45/49/44 46/47/46
f 48/50/47 22/38/22 46/47/46
f 31/43/32 22/38/22 48/50/47
f 19/44/20 45/49/44 41/48/41
f 26/45/24 45/49/44 19/44/20
f 56/51/49 52/52/50 49/53/51
f 56/51/49 55/54/52 52/52/50
f 57/55/53 49/53/51 50/56/54
f 57/55/53 56/51/49 49/53/51
f 58/57/55 50/56/54 51/58/56
f 58/57/55 57/55/53 50/56/54
f 52/52/50 59/51/57 53/53/58
f 55/54/52 59/51/57 52/52/50
f 53/53/58 60/55/59 54/56/60
f 59/51/57 60/55/59 53/53/58
f 54/56/60 58/57/55 51/58/56
f 60/55/59 58/57/55 54/56/60
f 59/59/57 55/60/52 56/61/49
f 59/59/57 57/62/53 60/63/59
f 59/59/57 56/61/49 57/62/53
f 57/62/53 58/64/55 60/63/59
f 50/65/54 49/66/51 25/67/27
f 49/66/51 24/68/23 25/67/27
f 29/69/30 51/70/56 30/71/31
f 52/72/50 24/68/23 49/66/51
f 23/73/26 24/68/23 52/72/50
f 53/74/58 54/75/60 44/76/45
f 43/77/43 53/74/58 44/76/45
f 51/70/56 29/69/30 47/78/48
f 43/77/43 52/72/50 53/74/58
f 43/77/43 23/73/26 52/72/50
f 50/65/54 30/71/31 51/70/56
f 50/65/54 25/67/27 30/71/31
f 54/75/60 47/78/48 44/76/45
f 54/75/60 51/70/56 47/78/48
